<?xml version="1.0" standalone="no"?>
<!DOCTYPE svg PUBLIC "-//W3C//DTD SVG 20010904//EN"
 "http://www.w3.org/TR/2001/REC-SVG-20010904/DTD/svg10.dtd">
<svg version="1.0" xmlns="http://www.w3.org/2000/svg"
 width="400.000000pt" height="400.000000pt" viewBox="0 0 400.000000 400.000000"
 preserveAspectRatio="xMidYMid meet">
<metadata>
Created by potrace 1.11, written by Peter Selinger 2001-2013
</metadata>
<g transform="translate(0.000000,400.000000) scale(0.100000,-0.100000)"
fill="#000000" stroke="none">
<path d="M2910 3705 c-14 -7 -389 -169 -835 -360 -445 -190 -829 -355 -852
-366 -24 -10 -72 -31 -108 -45 l-65 -26 -1 -92 c-1 -50 0 -102 1 -115 1 -13
-4 -28 -12 -32 -10 -7 -10 -9 0 -9 8 0 12 -20 12 -66 0 -49 -3 -63 -13 -58 -9
6 -9 5 0 -7 16 -20 16 -262 0 -252 -9 5 -8 2 0 -8 17 -21 16 -162 0 -153 -8 5
-7 2 1 -7 16 -18 16 -63 0 -53 -10 6 -10 4 0 -7 16 -17 16 -76 0 -82 -10 -4
-10 -6 0 -6 6 -1 12 -8 12 -16 0 -8 7 -15 15 -15 8 0 15 -5 15 -10 0 -6 3 -9
7 -8 14 4 83 -26 83 -35 0 -4 4 -6 9 -2 5 3 15 0 23 -7 7 -7 20 -14 28 -16 8
-2 38 -13 65 -26 28 -13 60 -26 73 -30 12 -4 20 -11 17 -16 -3 -4 1 -8 8 -7
30 1 48 -4 43 -11 -2 -4 3 -8 13 -9 9 -1 47 -15 84 -32 37 -17 72 -31 77 -31
6 0 10 -5 10 -11 0 -5 4 -8 9 -4 5 3 15 -1 23 -8 14 -15 20 -17 42 -17 8 0 22
-8 32 -17 10 -10 18 -16 18 -13 1 5 97 -29 109 -39 9 -9 6 -10 -443 -201 -195
-83 -357 -155 -360 -160 -3 -4 -5 -217 -5 -472 0 -396 2 -463 15 -460 11 3
606 252 695 292 51 23 116 50 175 75 36 14 83 34 105 44 22 10 128 55 235 101
107 45 209 88 225 96 17 7 93 40 170 72 323 135 295 120 296 161 3 187 0 503
-4 507 -3 3 -3 16 1 28 6 17 7 200 1 216 -1 3 0 10 1 15 1 6 2 39 3 75 l1 64
-39 21 c-22 11 -43 24 -46 28 -3 5 -9 8 -13 8 -19 -3 -27 0 -22 8 3 4 -2 8
-12 7 -22 -1 -102 35 -102 47 0 4 -4 5 -10 2 -5 -3 -10 -2 -10 4 0 6 -7 7 -17
4 -11 -4 -14 -3 -9 5 5 8 2 10 -8 6 -9 -3 -16 -1 -16 6 0 6 -4 9 -9 5 -5 -3
-16 1 -24 9 -8 8 -17 13 -19 10 -3 -2 -36 11 -74 31 -38 19 -75 35 -82 35 -7
0 -10 4 -7 10 3 5 0 7 -8 4 -8 -3 -21 1 -28 9 -8 7 -19 12 -25 10 -7 -2 -20 4
-30 14 -9 10 -18 16 -19 13 -2 -5 -105 40 -115 50 -3 3 -12 6 -20 8 -8 2 -16
7 -18 12 -2 5 -9 7 -17 4 -7 -3 -16 -1 -19 4 -7 11 -7 11 314 152 85 37 175
77 200 88 25 12 101 46 170 76 l125 55 0 467 c0 303 -4 468 -10 470 -5 1 -21
-4 -35 -11z"/>
</g>
</svg>
