<?xml version="1.0" standalone="no"?>
<!DOCTYPE svg PUBLIC "-//W3C//DTD SVG 20010904//EN"
 "http://www.w3.org/TR/2001/REC-SVG-20010904/DTD/svg10.dtd">
<svg version="1.0" xmlns="http://www.w3.org/2000/svg"
 width="512.000000pt" height="512.000000pt" viewBox="0 0 512.000000 512.000000"
 preserveAspectRatio="xMidYMid meet">
<metadata>
Created by potrace 1.11, written by Peter Selinger 2001-2013
</metadata>
<g transform="translate(0.000000,512.000000) scale(0.100000,-0.100000)"
fill="#000000" stroke="none">
<path d="M1795 4332 c-187 -107 -356 -203 -375 -214 -19 -11 -59 -33 -87 -50
-29 -16 -53 -35 -54 -41 -5 -73 0 -2917 5 -2925 5 -9 96 -63 261 -157 22 -13
98 -57 169 -99 70 -42 129 -76 130 -76 1 0 63 -36 136 -80 74 -44 140 -80 146
-80 8 0 11 139 12 486 1 268 2 488 4 489 3 3 618 354 678 388 19 10 91 52 160
92 292 170 510 295 514 295 2 0 55 30 117 68 63 37 135 78 161 92 89 46 80 -7
80 507 -1 252 -1 470 -1 484 -1 21 -17 34 -103 85 -57 32 -112 64 -123 71 -11
7 -27 15 -35 19 -18 9 -159 90 -180 104 -8 5 -28 17 -45 26 -16 10 -217 125
-445 257 -228 132 -444 257 -480 277 -36 20 -119 68 -185 106 l-120 70 -340
-194z m428 -844 c40 -22 101 -57 137 -78 36 -20 113 -64 171 -98 59 -34 129
-74 156 -89 216 -122 292 -168 285 -174 -4 -4 -77 -47 -162 -95 -85 -48 -173
-98 -195 -111 -22 -12 -58 -32 -80 -44 -22 -12 -76 -43 -120 -69 -44 -27 -103
-61 -131 -77 -29 -15 -72 -40 -98 -55 l-46 -27 0 480 c0 263 2 479 5 479 3 0
38 -19 78 -42z"/>
</g>
</svg>
