<?xml version="1.0" encoding="UTF-8" standalone="no"?>
<svg width="667px" height="190px" viewBox="0 0 667 190" version="1.1" xmlns="http://www.w3.org/2000/svg" xmlns:xlink="http://www.w3.org/1999/xlink" xmlns:sketch="http://www.bohemiancoding.com/sketch/ns">
    <!-- Generator: Sketch 3.5.2 (25235) - http://www.bohemiancoding.com/sketch -->
    <title>JohannesburgArtisticSilhouette</title>
    <desc>Created with Sketch.</desc>
    <defs></defs>
    <g id="Page-1" stroke="none" stroke-width="1" fill="none" fill-rule="evenodd" sketch:type="MSPage">
        <g id="JohannesburgArtisticSilhouette" sketch:type="MSLayerGroup" fill="#EEEEEE">
            <path d="M0,189.08762 L666.81866,189.08762 L666.81866,152.15625 L663.69708,152.15625 L663.69708,155.1875 L657.72833,155.1875 L657.72833,153.6875 L650.32208,153.6875 L650.32208,159.09375 L644.66583,159.09375 L644.66583,160.78125 L641.54083,160.78125 L641.54083,159.125 L636.13458,159.125 L629.29083,152.28125 L627.44708,155.5 L624.88458,155.5 L624.88458,136.34375 C625.99956,135.7351 626.79083,134.57852 626.79083,133.21875 C626.79083,131.85898 625.99956,130.7024 624.88458,130.09375 L624.88458,116.65625 L626.91583,116.65625 L626.91583,114.34375 L624.22203,114.34375 L623.22799,101.85983 L622.32167,114.34375 L618.69708,114.34375 L618.69708,116.1875 L621.2127,116.1875 L621.2127,117.98216 L619.97833,117.98216 L619.97833,119.98077 L621.54083,119.98077 L621.54083,130.0625 C620.39872,130.66283 619.60333,131.83889 619.60333,133.21875 C619.60333,134.59861 620.39872,135.77467 621.54083,136.375 L621.54083,156 L618.63458,156 L618.63458,150.40625 L614.75958,146.5 L608.10333,150.34375 L608.10333,147.84375 L604.57208,148.8125 L604.57208,156.25 L601.97833,156.25 L601.97833,152.4375 L584.38458,152.4375 L584.38458,156.4375 L579.35333,156.4375 L579.35333,152.6875 L567.47833,152.6875 L567.47833,156 L563.69708,156 L562.91583,129.53125 L562.13458,154.71875 L559.82208,154.71875 L559.82208,150.75 L556.88458,150.75 L556.88458,154.25 L553.38458,154.25 L553.38458,152.0625 L548.16583,152.0625 L548.16583,157.25 L540.35333,157.25 L540.35333,154.71875 L532.82208,154.71875 L533.07208,133.875 L531.79083,155.21875 L527.69708,155.21875 L527.69708,148.90625 L524.50958,148.90625 L523.57208,152.40625 L519.69708,152.40625 L519.69708,156.71875 L517.38458,156.71875 L517.38458,150.375 L515.35333,149.84375 L515.35333,154.71875 L514.07208,154.71875 L514.07208,157.125 L512.47833,157.125 L512.47833,160.625 L507.88458,160.625 L507.88458,137.5 L496.19708,137.5 L496.19708,134.34375 L492.72833,134.34375 L492.72833,137.5 L488.85333,137.5 L488.85333,146.21875 L484.75958,146.21875 L484.75958,151.375 L481.66583,151.375 L481.66583,155.75 L479.54083,155.75 L479.54083,152.375 L477.82208,152.375 L477.82208,146.96875 L471.22833,146.96875 L471.22833,149.5625 L462.63458,149.5625 L462.63458,152.90625 L452.88458,152.90625 L452.88458,138.1875 L448.97833,138.1875 L448.97833,136.46875 L445.41583,136.46875 L445.41583,138.78125 L443.35333,138.78125 L443.35333,136.1875 L437.19708,136.1875 L437.19708,143.15625 L434.07208,143.15625 L434.07208,148.34375 L432.50958,148.34375 L432.50958,139.34375 L431.00958,139.34375 L431.00958,137.1875 L425.25958,137.1875 L424.60333,134.65625 L412.50958,134.65625 L412.50958,139.8125 L410.44708,139.8125 L410.44708,146.5 L406.07208,146.5 L404.22833,143.40625 L404.22833,65.65625 L402.75958,65.65625 L402.75958,63.6875 L405.91583,63.6875 L405.91583,58.5 L407.60333,58.5 L407.60333,54.65625 L405.91583,54.65625 L405.91583,46.375 L404.54083,46.375 L404.54083,42.875 L410.57208,42.875 L410.57208,40.3125 L408.13458,40.3125 L408.13458,35.25 L410.32208,35.25 L410.32208,33.0625 L406.29083,33.0625 L406.29083,31.84375 L403.50958,31.84375 L403.50958,28.71875 L405.22833,28.71875 L405.22833,26.78125 L400.94708,26.78125 L400.16583,0 L398.75958,26.78125 L393.41583,26.78125 L393.41583,28.71875 L395.38458,28.71875 L395.38458,32.15625 C392.43351,32.55878 390.11468,33.59525 389.00958,35.84375 L389.00958,38.8125 L391.04083,38.8125 L391.04083,41.59375 L389.63458,41.59375 L389.63458,43.375 L394.72833,43.375 L394.72833,46.375 L392.60333,46.375 L392.60333,54.65625 L390.66583,54.65625 L390.66583,58.5 L392.60333,58.5 L392.60333,63.1875 L396.13458,63.1875 L396.13458,65.65625 L394.07208,65.65625 L394.07208,143.90625 L381.66583,143.90625 L381.66583,155.75 L376.00958,155.75 L376.00958,133.625 L370.60333,133.625 L370.60333,132.09375 L364.22833,132.09375 L363.75958,122.46875 L363.32208,132.09375 L354.75015,132.09375 L354.75015,135.1875 L351.68765,135.1875 L351.68765,140.5625 L335.06859,140.5625 L335.06859,146.21875 L329.94359,146.21875 L329.94359,143.3125 L329.16234,140.3125 L323.50609,140.3125 L323.50609,143.15625 L322.13391,143.15625 L322.13391,158.50045 L318.71779,158.50045 L318.71779,140.0625 L310.63109,140.0625 L310.63109,136.46875 L306.63109,136.46875 L306.63109,140.25 L304.72484,141.34375 L304.72484,147 L271.4809,147 L271.4809,148.3125 L269.6684,148.3125 L269.6684,143.90625 L264.7934,143.90625 L264.7934,142.875 L260.9184,142.875 L260.9184,140.3125 L256.5434,140.3125 L256.5434,147 L244.39196,147 L244.39196,144.4375 L240.54821,144.4375 L240.54821,141.09375 L236.29821,141.09375 L236.29821,151.5 L233.07946,148.28125 L233.07946,122.3125 L226.92321,122.3125 L226.92321,116.15625 L221.76696,116.15625 L221.76696,129.53125 L214.767,129.53125 L214.767,157.62571 L208.67321,157.62571 L208.67321,149.56255 L205.76696,146.2813 L202.23571,149.56255 L202.23571,140.75005 L196.95446,140.75005 L196.95446,137.87505 L191.36071,137.87505 L191.36071,141.8438 L187.79821,141.8438 L187.79821,146.5313 L186.29821,146.5313 L186.29821,144.68755 L175.50549,144.68755 L175.50549,147.81255 L158.07208,147.81255 L158.07208,144.4688 L154.10333,144.4688 L154.10333,142.12505 L147.16583,142.12505 L147.16583,138.7813 L143.32208,138.7813 L142.41583,106.3438 C144.16193,105.80071 145.44708,104.17486 145.44708,102.25005 C145.44708,100.2356 144.03808,98.58582 142.16583,98.12505 L141.32208,67.87505 L139.94708,98.1563 C138.16724,98.67862 136.85333,100.30123 136.85333,102.25005 C136.85333,104.06121 137.98481,105.62098 139.57208,106.25005 L137.60333,150.03125 L133.13428,154.78832 L133.13428,157.97369 L127.10333,153.93755 L127.10333,142.37505 L107.85333,142.37505 L107.85333,148.43755 L105.25958,148.43755 L105.25958,69.93755 L72.290827,69.93755 L72.290827,144.1563 L67.759577,144.1563 L67.759577,146.7188 L63.728327,146.7188 L63.728327,149.06255 L60.259577,149.06255 L60.259577,144.68755 L57.947077,144.68755 L57.947077,139.2813 L54.603327,139.2813 L54.603327,132.5938 L48.528725,132.5938 L48.528725,155.34778 L43.930539,155.34778 L43.930539,153.51395 L35.822077,153.52735 L35.822077,155.50008 L30.947077,155.50008 L30.947077,164.46883 L26.072077,164.46883 L26.072077,155.50005 L21.913459,155.50005 L21.913459,152.49001 L19.572077,152.49001 L19.572077,155.50005 L7.822077,155.50005 L7.822077,162.93753 L5.509577,162.93753 L5.509577,166.28128 L7.10542736e-15,166.28128 L0,189.08762 Z" id="path2987" sketch:type="MSShapeGroup"></path>
        </g>
    </g>
</svg>